<?xml version="1.0" encoding="UTF-8"?> <svg xmlns="http://www.w3.org/2000/svg" width="32" height="32" viewBox="0 0 32 32" fill="none"> <path d="M30.7496 6.84375C29.6621 7.325 28.4996 7.65 27.2746 7.8C28.5246 7.05 29.4871 5.8625 29.9371 4.45C28.7684 5.14375 27.4746 5.65 26.0934 5.91875C24.9871 4.7375 23.4121 4 21.6746 4C18.3309 4 15.6246 6.7125 15.6246 10.0562C15.6246 10.5312 15.6746 10.9938 15.7809 11.4375C10.7496 11.1875 6.28711 8.775 3.30586 5.10625C2.78711 6 2.48711 7.04375 2.48711 8.15C2.48711 10.25 3.55586 12.1063 5.18086 13.1938C4.18711 13.1688 3.24961 12.8938 2.43711 12.4375C2.43711 12.4625 2.43711 12.4875 2.43711 12.5125C2.43711 15.45 4.52461 17.8938 7.29336 18.45C6.78711 18.5875 6.24961 18.6625 5.69961 18.6625C5.31211 18.6625 4.93086 18.625 4.56211 18.55C5.33086 20.9562 7.56836 22.7063 10.2184 22.7563C8.14961 24.3813 5.53711 25.35 2.69961 25.35C2.21211 25.35 1.73086 25.3188 1.25586 25.2625C3.93086 27 7.11211 28 10.5246 28C21.6621 28 27.7496 18.7688 27.7496 10.7625C27.7496 10.5 27.7434 10.2375 27.7309 9.98125C28.9121 9.125 29.9371 8.05625 30.7496 6.84375Z" fill="white"></path> </svg> 